<?xml version="1.0" encoding="UTF-8"?>
<svg width="700pt" height="700pt" version="1.1" viewBox="0 0 700 700" xmlns="http://www.w3.org/2000/svg" xmlns:xlink="http://www.w3.org/1999/xlink">
 <defs>
  <symbol id="t" overflow="visible">
   <path d="m1-0.0625c-0.054688 0.03125-0.10547 0.054688-0.15625 0.0625-0.054688 0.0078125-0.10938 0.015625-0.17188 0.015625-0.1875 0-0.33594-0.046875-0.4375-0.14062-0.10547-0.10156-0.15625-0.24219-0.15625-0.42188 0-0.17578 0.050781-0.3125 0.15625-0.40625 0.10156-0.10156 0.25-0.15625 0.4375-0.15625 0.0625 0 0.11719 0.007813 0.17188 0.015625 0.050781 0.011719 0.10156 0.03125 0.15625 0.0625v0.21875c-0.054688-0.03125-0.10547-0.050781-0.15625-0.0625-0.042969-0.019531-0.09375-0.03125-0.15625-0.03125-0.09375 0-0.17188 0.03125-0.23438 0.09375s-0.09375 0.15234-0.09375 0.26562c0 0.11719 0.03125 0.20312 0.09375 0.26562s0.14062 0.09375 0.23438 0.09375c0.0625 0 0.11328-0.003906 0.15625-0.015625 0.050781-0.019531 0.10156-0.046875 0.15625-0.078125z"/>
  </symbol>
  <symbol id="a" overflow="visible">
   <path d="m0.73438-0.59375c-0.023437-0.007812-0.042969-0.015625-0.0625-0.015625-0.023437-0.007813-0.046875-0.015625-0.078125-0.015625-0.0625 0-0.11719 0.023438-0.15625 0.0625-0.03125 0.042969-0.046875 0.10547-0.046875 0.1875v0.375h-0.26562v-0.82812h0.26562v0.14062c0.03125-0.050781 0.066406-0.085938 0.10938-0.10938 0.039062-0.03125 0.09375-0.046875 0.15625-0.046875h0.03125c0.007812 0 0.023438 0.007812 0.046875 0.015625z"/>
  </symbol>
  <symbol id="d" overflow="visible">
   <path d="m0.9375-0.40625v0.0625h-0.60938c0.007813 0.0625 0.03125 0.10938 0.0625 0.14062 0.039063 0.03125 0.097656 0.046875 0.17188 0.046875 0.050781 0 0.10156-0.003906 0.15625-0.015625 0.0625-0.019531 0.125-0.046875 0.1875-0.078125v0.20312c-0.0625 0.023438-0.125 0.039062-0.1875 0.046875s-0.125 0.015625-0.1875 0.015625c-0.14844 0-0.26172-0.035156-0.34375-0.10938-0.085938-0.070312-0.125-0.17578-0.125-0.3125 0-0.13281 0.039062-0.23828 0.125-0.3125 0.082031-0.082031 0.19141-0.125 0.32812-0.125 0.13281 0 0.23828 0.042969 0.3125 0.125 0.070313 0.074219 0.10938 0.17969 0.10938 0.3125zm-0.26562-0.09375c0-0.050781-0.015625-0.09375-0.046875-0.125-0.023438-0.03125-0.058594-0.046875-0.10938-0.046875-0.054687 0-0.09375 0.015625-0.125 0.046875s-0.054687 0.074219-0.0625 0.125z"/>
  </symbol>
  <symbol id="f" overflow="visible">
   <path d="m0.5-0.375c-0.0625 0-0.10938 0.011719-0.14062 0.03125-0.023437 0.023438-0.03125 0.046875-0.03125 0.078125 0 0.042969 0.007813 0.074219 0.03125 0.09375 0.019531 0.011719 0.050781 0.015625 0.09375 0.015625 0.050781 0 0.09375-0.015625 0.125-0.046875 0.03125-0.039063 0.046875-0.085937 0.046875-0.14062v-0.03125zm0.39062-0.09375v0.46875h-0.26562v-0.125c-0.03125 0.054688-0.070312 0.089844-0.10938 0.10938-0.042969 0.019531-0.10156 0.03125-0.17188 0.03125-0.085938 0-0.15234-0.019531-0.20312-0.0625-0.054688-0.050781-0.078125-0.11719-0.078125-0.20312 0-0.09375 0.03125-0.16016 0.09375-0.20312 0.070312-0.050781 0.17578-0.078125 0.3125-0.078125h0.15625v-0.015625c0-0.039063-0.015625-0.070313-0.046875-0.09375-0.03125-0.019531-0.085937-0.03125-0.15625-0.03125-0.054687 0-0.10547 0.011719-0.15625 0.03125-0.042969 0.011719-0.085937 0.027344-0.125 0.046875v-0.20312c0.050781-0.007813 0.10156-0.019531 0.15625-0.03125 0.0625-0.007813 0.11719-0.015625 0.17188-0.015625 0.15625 0 0.26562 0.03125 0.32812 0.09375 0.0625 0.054688 0.09375 0.14844 0.09375 0.28125z"/>
  </symbol>
  <symbol id="c" overflow="visible">
   <path d="m0.40625-1.0469v0.21875h0.28125v0.1875h-0.28125v0.35938c0 0.03125 0.003906 0.058594 0.015625 0.078125 0.019531 0.011719 0.054687 0.015625 0.10938 0.015625h0.125v0.1875h-0.21875c-0.10547 0-0.17969-0.019531-0.21875-0.0625-0.042969-0.039062-0.0625-0.11328-0.0625-0.21875v-0.35938h-0.14062v-0.1875h0.14062v-0.21875z"/>
  </symbol>
  <symbol id="k" overflow="visible">
   <path d="m0.6875-0.70312v-0.4375h0.26562v1.1406h-0.26562v-0.125c-0.042969 0.054688-0.085938 0.089844-0.125 0.10938-0.042969 0.019531-0.09375 0.03125-0.15625 0.03125-0.09375 0-0.17969-0.035156-0.25-0.10938-0.0625-0.082031-0.09375-0.1875-0.09375-0.3125s0.03125-0.22656 0.09375-0.3125c0.070312-0.082031 0.15625-0.125 0.25-0.125 0.0625 0 0.11328 0.015625 0.15625 0.046875 0.039062 0.023437 0.082031 0.054687 0.125 0.09375zm-0.17188 0.53125c0.050781 0 0.09375-0.019531 0.125-0.0625 0.03125-0.039063 0.046875-0.097656 0.046875-0.17188 0-0.082031-0.015625-0.14453-0.046875-0.1875-0.03125-0.039062-0.074219-0.0625-0.125-0.0625-0.0625 0-0.10938 0.023438-0.14062 0.0625-0.023438 0.042969-0.03125 0.10547-0.03125 0.1875 0 0.074219 0.007812 0.13281 0.03125 0.17188 0.03125 0.042969 0.078125 0.0625 0.14062 0.0625z"/>
  </symbol>
  <symbol id="j" overflow="visible">
   <path d="m0.5625-0.17188c0.050781 0 0.09375-0.019531 0.125-0.0625 0.03125-0.039063 0.046875-0.097656 0.046875-0.17188 0-0.082031-0.015625-0.14453-0.046875-0.1875-0.03125-0.039062-0.074219-0.0625-0.125-0.0625-0.054688 0-0.09375 0.023438-0.125 0.0625-0.03125 0.042969-0.046875 0.10547-0.046875 0.1875 0 0.074219 0.015625 0.13281 0.046875 0.17188 0.03125 0.042969 0.070312 0.0625 0.125 0.0625zm-0.17188-0.53125c0.03125-0.039063 0.066406-0.070313 0.10938-0.09375 0.050781-0.03125 0.10156-0.046875 0.15625-0.046875 0.10156 0 0.1875 0.042969 0.25 0.125 0.0625 0.085938 0.09375 0.1875 0.09375 0.3125s-0.03125 0.23047-0.09375 0.3125c-0.0625 0.074219-0.14844 0.10938-0.25 0.10938-0.054688 0-0.10547-0.011719-0.15625-0.03125-0.042969-0.019531-0.078125-0.054688-0.10938-0.10938v0.125h-0.26562v-1.1406h0.26562z"/>
  </symbol>
  <symbol id="i" overflow="visible">
   <path d="m0.015625-0.82812h0.26562l0.21875 0.5625 0.1875-0.5625h0.26562l-0.34375 0.90625c-0.042969 0.09375-0.085937 0.15625-0.125 0.1875-0.042969 0.039063-0.10547 0.0625-0.1875 0.0625h-0.14062v-0.17188h0.078125c0.039063 0 0.070313-0.011719 0.09375-0.03125 0.019531-0.011719 0.035156-0.039062 0.046875-0.078125l0.015625-0.015625z"/>
  </symbol>
  <symbol id="e" overflow="visible">
   <path d="m0.39062-0.125v0.4375h-0.26562v-1.1406h0.26562v0.125c0.03125-0.039063 0.066406-0.070313 0.10938-0.09375 0.050781-0.03125 0.10156-0.046875 0.15625-0.046875 0.10156 0 0.1875 0.042969 0.25 0.125 0.0625 0.085938 0.09375 0.1875 0.09375 0.3125s-0.03125 0.23047-0.09375 0.3125c-0.0625 0.074219-0.14844 0.10938-0.25 0.10938-0.054688 0-0.10547-0.011719-0.15625-0.03125-0.042969-0.019531-0.078125-0.054688-0.10938-0.10938zm0.17188-0.53125c-0.054688 0-0.09375 0.023438-0.125 0.0625-0.03125 0.042969-0.046875 0.10547-0.046875 0.1875 0 0.074219 0.015625 0.13281 0.046875 0.17188 0.03125 0.042969 0.070312 0.0625 0.125 0.0625 0.050781 0 0.09375-0.019531 0.125-0.0625 0.03125-0.039063 0.046875-0.097656 0.046875-0.17188 0-0.082031-0.015625-0.14453-0.046875-0.1875-0.03125-0.039062-0.074219-0.0625-0.125-0.0625z"/>
  </symbol>
  <symbol id="b" overflow="visible">
   <path d="m0.51562-0.65625c-0.0625 0-0.10938 0.023438-0.14062 0.0625-0.023438 0.042969-0.03125 0.10547-0.03125 0.1875 0 0.074219 0.007812 0.13281 0.03125 0.17188 0.03125 0.042969 0.078125 0.0625 0.14062 0.0625s0.10156-0.019531 0.125-0.0625c0.03125-0.039063 0.046875-0.097656 0.046875-0.17188 0-0.082031-0.015625-0.14453-0.046875-0.1875-0.023437-0.039062-0.0625-0.0625-0.125-0.0625zm0-0.1875c0.14453 0 0.25391 0.042969 0.32812 0.125 0.082031 0.074219 0.125 0.17969 0.125 0.3125 0 0.13672-0.042969 0.24219-0.125 0.3125-0.074219 0.074219-0.18359 0.10938-0.32812 0.10938-0.14844 0-0.26172-0.035156-0.34375-0.10938-0.074219-0.070312-0.10938-0.17578-0.10938-0.3125 0-0.13281 0.035156-0.23828 0.10938-0.3125 0.082031-0.082031 0.19531-0.125 0.34375-0.125z"/>
  </symbol>
  <symbol id="h" overflow="visible">
   <path d="m0.78125-0.79688v0.21875c-0.03125-0.03125-0.070312-0.050781-0.10938-0.0625-0.03125-0.007813-0.070313-0.015625-0.10938-0.015625-0.074219 0-0.13281 0.023438-0.17188 0.0625-0.03125 0.042969-0.046875 0.10547-0.046875 0.1875 0 0.074219 0.015625 0.13281 0.046875 0.17188 0.039063 0.042969 0.097656 0.0625 0.17188 0.0625 0.039062 0 0.078125-0.003906 0.10938-0.015625 0.039063-0.007812 0.078125-0.023438 0.10938-0.046875v0.20312c-0.03125 0.023438-0.074219 0.03125-0.125 0.03125-0.042969 0.0078125-0.085938 0.015625-0.125 0.015625-0.14844 0-0.26172-0.035156-0.34375-0.10938-0.085938-0.070312-0.125-0.17578-0.125-0.3125 0-0.13281 0.039062-0.23828 0.125-0.3125 0.082031-0.082031 0.19531-0.125 0.34375-0.125 0.039062 0 0.082031 0.007812 0.125 0.015625 0.050781 0.011719 0.09375 0.023437 0.125 0.03125z"/>
  </symbol>
  <symbol id="g" overflow="visible">
   <path d="m0.95312-0.5v0.5h-0.26562v-0.375c0-0.070312-0.007812-0.11719-0.015625-0.14062v-0.078125c-0.011719-0.007812-0.027344-0.019531-0.046875-0.03125-0.023438-0.007812-0.042969-0.015625-0.0625-0.015625-0.054688 0-0.09375 0.023437-0.125 0.0625-0.03125 0.042969-0.046875 0.10156-0.046875 0.17188v0.40625h-0.26562v-0.82812h0.26562v0.125c0.039063-0.039063 0.082031-0.070313 0.125-0.09375 0.039063-0.03125 0.085937-0.046875 0.14062-0.046875 0.09375 0 0.16406 0.03125 0.21875 0.09375 0.050781 0.054688 0.078125 0.13672 0.078125 0.25z"/>
  </symbol>
  <symbol id="s" overflow="visible">
   <path d="m0.76562-0.79688v0.20312c-0.054687-0.019531-0.10547-0.035156-0.15625-0.046875-0.054687-0.019531-0.10547-0.03125-0.15625-0.03125-0.054687 0-0.089844 0.011719-0.10938 0.03125-0.023438 0.011719-0.03125 0.027344-0.03125 0.046875 0 0.023438 0.003906 0.039062 0.015625 0.046875 0.019531 0.011719 0.054687 0.023437 0.10938 0.03125h0.046875c0.13281 0.023437 0.22266 0.054687 0.26562 0.09375 0.050781 0.042969 0.078125 0.10547 0.078125 0.1875 0 0.085937-0.039063 0.14844-0.10938 0.1875-0.0625 0.042969-0.15625 0.0625-0.28125 0.0625-0.054688 0-0.10938-0.0078125-0.17188-0.015625-0.054687 0-0.10938-0.0078125-0.17188-0.03125v-0.20312c0.050781 0.03125 0.10156 0.054687 0.15625 0.0625 0.050781 0.011719 0.10938 0.015625 0.17188 0.015625 0.050781 0 0.085937-0.003906 0.10938-0.015625 0.03125-0.019531 0.046875-0.039063 0.046875-0.0625 0-0.019531-0.011719-0.035156-0.03125-0.046875-0.023437-0.019531-0.058594-0.03125-0.10938-0.03125l-0.046875-0.015625c-0.11719-0.007813-0.19922-0.035156-0.25-0.078125-0.042969-0.039062-0.0625-0.097656-0.0625-0.17188 0-0.09375 0.023437-0.16016 0.078125-0.20312 0.0625-0.039062 0.15625-0.0625 0.28125-0.0625 0.050781 0 0.10156 0.007812 0.15625 0.015625 0.050781 0.011719 0.10938 0.023437 0.17188 0.03125z"/>
  </symbol>
  <symbol id="r" overflow="visible">
   <path d="m0.67188-1.1406v0.17188h-0.15625c-0.03125 0-0.058594 0.011719-0.078125 0.03125-0.011719 0.011719-0.015625 0.03125-0.015625 0.0625v0.046875h0.21875v0.1875h-0.21875v0.64062h-0.26562v-0.64062h-0.125v-0.1875h0.125v-0.046875c0-0.09375 0.023438-0.16016 0.078125-0.20312 0.050781-0.039063 0.12891-0.0625 0.23438-0.0625z"/>
  </symbol>
  <symbol id="q" overflow="visible">
   <path d="m0.89062-0.6875c0.03125-0.050781 0.066406-0.085938 0.10938-0.10938 0.050781-0.03125 0.10156-0.046875 0.15625-0.046875 0.09375 0 0.16016 0.03125 0.20312 0.09375 0.050781 0.054688 0.078125 0.13672 0.078125 0.25v0.5h-0.25v-0.42188-0.015625-0.046875c0-0.050781-0.011719-0.085937-0.03125-0.10938-0.023438-0.03125-0.046875-0.046875-0.078125-0.046875-0.054687 0-0.09375 0.023437-0.125 0.0625-0.023437 0.042969-0.03125 0.10156-0.03125 0.17188v0.40625h-0.26562v-0.42188c0-0.09375-0.011719-0.14844-0.03125-0.17188-0.011719-0.03125-0.039062-0.046875-0.078125-0.046875-0.054687 0-0.09375 0.023437-0.125 0.0625-0.023437 0.042969-0.03125 0.10156-0.03125 0.17188v0.40625h-0.26562v-0.82812h0.26562v0.125c0.03125-0.039063 0.066406-0.070313 0.10938-0.09375 0.039062-0.03125 0.085938-0.046875 0.14062-0.046875 0.050781 0 0.097656 0.015625 0.14062 0.046875 0.050781 0.023437 0.085938 0.058594 0.10938 0.10938z"/>
  </symbol>
  <symbol id="p" overflow="visible">
   <path d="m0.95312-0.5v0.5h-0.26562v-0.375c0-0.070312-0.007812-0.11719-0.015625-0.14062v-0.078125c-0.011719-0.007812-0.027344-0.019531-0.046875-0.03125-0.023438-0.007812-0.042969-0.015625-0.0625-0.015625-0.054688 0-0.09375 0.023437-0.125 0.0625-0.03125 0.042969-0.046875 0.10156-0.046875 0.17188v0.40625h-0.26562v-1.1406h0.26562v0.4375c0.039063-0.039063 0.082031-0.070313 0.125-0.09375 0.039063-0.03125 0.085937-0.046875 0.14062-0.046875 0.09375 0 0.16406 0.03125 0.21875 0.09375 0.050781 0.054688 0.078125 0.13672 0.078125 0.25z"/>
  </symbol>
  <symbol id="o" overflow="visible">
   <path d="m0.14062-1.0938h0.3125l0.39062 0.75v-0.75h0.28125v1.0938h-0.32812l-0.39062-0.75v0.75h-0.26562z"/>
  </symbol>
  <symbol id="n" overflow="visible">
   <path d="m0.125-0.3125v-0.51562h0.25v0.09375 0.17188 0.125 0.14062c0.007812 0.03125 0.019531 0.054687 0.03125 0.0625 0.007812 0.023437 0.019531 0.039063 0.03125 0.046875 0.019531 0.011719 0.039062 0.015625 0.0625 0.015625 0.0625 0 0.10938-0.019531 0.14062-0.0625 0.03125-0.039063 0.046875-0.10156 0.046875-0.1875v-0.40625h0.25v0.82812h-0.25v-0.125c-0.042969 0.054688-0.089844 0.089844-0.14062 0.10938-0.042969 0.019531-0.089844 0.03125-0.14062 0.03125-0.09375 0-0.16797-0.023438-0.21875-0.078125-0.042969-0.0625-0.0625-0.14453-0.0625-0.25z"/>
  </symbol>
  <symbol id="m" overflow="visible">
   <path d="m0.14062-1.0938h0.46875c0.13281 0 0.23828 0.03125 0.3125 0.09375 0.070313 0.0625 0.10938 0.15234 0.10938 0.26562 0 0.11719-0.039062 0.20312-0.10938 0.26562-0.074219 0.0625-0.17969 0.09375-0.3125 0.09375h-0.1875v0.375h-0.28125zm0.28125 0.20312v0.3125h0.15625c0.050781 0 0.09375-0.007813 0.125-0.03125 0.03125-0.03125 0.046875-0.070313 0.046875-0.125 0-0.050781-0.015625-0.085937-0.046875-0.10938-0.03125-0.03125-0.074219-0.046875-0.125-0.046875z"/>
  </symbol>
  <symbol id="l" overflow="visible">
   <path d="m0.125-0.82812h0.26562v0.8125c0 0.11328-0.027344 0.19531-0.078125 0.25-0.054688 0.0625-0.13281 0.09375-0.23438 0.09375h-0.125v-0.17188h0.046875c0.050781 0 0.082031-0.015625 0.09375-0.046875 0.019531-0.023438 0.03125-0.0625 0.03125-0.125zm0-0.3125h0.26562v0.21875h-0.26562z"/>
  </symbol>
 </defs>
 <g>
  <path d="m95.141 517.5h509.71c11.672 0 21.25 9.5781 21.25 21.25v21.25h-552.22v-21.25c0-11.672 9.5781-21.25 21.25-21.25zm265.78-513.91 251.12 189.16c2.9922 2.3945 4.1914 6.2852 2.9922 10.176-1.1953 3.5898-4.4883 5.9844-8.6797 5.9844h-512.71c-3.8906 0-7.4844-2.3945-8.6797-5.9844-1.1953-3.8906 0-7.7812 3.293-10.176l250.82-189.16c6.5859-4.7891 15.266-4.7891 21.848 0zm-15.266 83.207v-8.9805h9.8789v8.6797c11.375 1.4961 18.559 6.5859 21.848 16.164l-16.164 4.7891c-1.4961-4.1914-5.0898-6.2852-10.176-6.2852-4.1914 0-6.2852 1.1953-6.2852 3.8906 0 1.1953 0.30078 2.0938 1.1953 2.6953 0.59766 0.59766 2.6953 1.4961 5.9844 2.0938 7.4844 1.4961 12.871 2.9922 15.863 4.1914 3.293 1.4961 5.9844 3.5898 8.082 6.5859 2.3945 3.293 3.293 6.8828 3.293 11.074 0 5.9844-2.0938 10.773-6.2852 14.965-4.1914 3.8906-9.8789 6.2852-17.359 7.1836v8.6797h-9.8789v-8.6797c-12.57-1.4961-20.352-8.082-23.348-19.754l17.957-3.293c1.4961 5.0898 5.3867 7.7812 11.672 7.7812 5.0898 0 7.4844-1.1953 7.4844-3.8906 0-1.4961-0.59766-2.6953-1.7969-3.293-1.1953-0.89844-3.293-1.4961-5.9844-2.0938-11.375-2.3945-18.559-5.3867-21.848-8.9805-2.9922-3.5898-4.4883-7.7812-4.4883-12.273 0-5.0898 1.7969-9.5781 5.0898-13.77 3.293-3.8906 8.3789-6.2852 15.266-7.4844zm4.4883-26.34c33.223 0 60.16 26.938 60.16 60.16 0 33.523-26.938 60.461-60.16 60.461-33.523 0-60.461-26.938-60.461-60.461 0-33.223 26.938-60.16 60.461-60.16zm-216.7 170.3h433.09v200.83h-46.691v-130.8c0-19.453-15.863-35.316-35.316-35.316h-0.59766c-19.453 0-35.02 15.863-35.02 35.316v130.8h-63.453v-130.8c0-19.453-15.863-35.316-35.02-35.316h-0.59766c-19.453 0-35.316 15.863-35.316 35.316v130.8h-63.152v-130.8c0-19.453-15.863-35.316-35.316-35.316h-0.59766c-19.453 0-35.316 15.863-35.316 35.316v130.8h-46.691v-200.83zm3.293 222.68h426.51c11.672 0 21.25 9.5781 21.25 21.25v21.25h-469.01v-21.25c0-11.672 9.5781-21.25 21.25-21.25z" fill-rule="evenodd"/>
  <use x="73.890625" y="564.488281" xlink:href="#t"/>
  <use x="74.988281" y="564.488281" xlink:href="#a"/>
  <use x="75.726563" y="564.488281" xlink:href="#d"/>
  <use x="76.742188" y="564.488281" xlink:href="#f"/>
  <use x="77.753906" y="564.488281" xlink:href="#c"/>
  <use x="78.46875" y="564.488281" xlink:href="#d"/>
  <use x="79.484375" y="564.488281" xlink:href="#k"/>
  <use x="81.074219" y="564.488281" xlink:href="#j"/>
  <use x="82.144531" y="564.488281" xlink:href="#i"/>
  <use x="83.640625" y="564.488281" xlink:href="#e"/>
  <use x="84.714844" y="564.488281" xlink:href="#b"/>
  <use x="85.742188" y="564.488281" xlink:href="#e"/>
  <use x="86.8125" y="564.488281" xlink:href="#h"/>
  <use x="87.699219" y="564.488281" xlink:href="#b"/>
  <use x="88.726563" y="564.488281" xlink:href="#a"/>
  <use x="89.464844" y="564.488281" xlink:href="#g"/>
  <use x="90.53125" y="564.488281" xlink:href="#f"/>
  <use x="91.542969" y="564.488281" xlink:href="#a"/>
  <use x="92.28125" y="564.488281" xlink:href="#c"/>
  <use x="92.996094" y="564.488281" xlink:href="#s"/>
  <use x="73.890625" y="565.984375" xlink:href="#r"/>
  <use x="74.542969" y="565.984375" xlink:href="#a"/>
  <use x="75.28125" y="565.984375" xlink:href="#b"/>
  <use x="76.308594" y="565.984375" xlink:href="#q"/>
  <use x="78.386719" y="565.984375" xlink:href="#c"/>
  <use x="79.105469" y="565.984375" xlink:href="#p"/>
  <use x="80.167969" y="565.984375" xlink:href="#d"/>
  <use x="81.707031" y="565.984375" xlink:href="#o"/>
  <use x="82.957031" y="565.984375" xlink:href="#b"/>
  <use x="83.984375" y="565.984375" xlink:href="#n"/>
  <use x="85.050781" y="565.984375" xlink:href="#g"/>
  <use x="86.636719" y="565.984375" xlink:href="#m"/>
  <use x="87.734375" y="565.984375" xlink:href="#a"/>
  <use x="88.472656" y="565.984375" xlink:href="#b"/>
  <use x="89.5" y="565.984375" xlink:href="#l"/>
  <use x="90.015625" y="565.984375" xlink:href="#d"/>
  <use x="91.027344" y="565.984375" xlink:href="#h"/>
  <use x="91.914062" y="565.984375" xlink:href="#c"/>
 </g>
</svg>
